#N canvas -1259 127 982 600 10;
#X obj 50 50 notein;
#X obj 50 100 mod 2;
#X obj 50 150 == 0;
#X obj 209 150 == 1;
#X obj 50 200 osc~;
#X obj 50 248 *~;
#X obj 209 200 phasor~;
#X obj 209 248 *~;
#X obj 209 367 *~;
#X obj 50 292 delwrite~ buffer 5000;
#X obj 209 417 dac~;
#X obj 209 317 bob~ 1;
#X floatatom 242 293 5 0 0 0 - - - 0;
#X obj 59 269 receive~ feedback-sig;
#X obj 50 341 *~;
#X obj 347 91 delread~ buffer 0;
#X obj 347 135 *~;
#X obj 491 134 *~;
#X obj 491 157 send~ feedback-sig;
#X obj 347 159 dac~;
#X obj 50 369 dac~;
#X connect 0 0 1 0;
#X connect 0 0 5 1;
#X connect 0 0 14 1;
#X connect 0 0 16 1;
#X connect 0 0 17 1;
#X connect 0 0 15 0;
#X connect 0 0 11 1;
#X connect 1 0 2 0;
#X connect 1 0 3 0;
#X connect 2 0 4 0;
#X connect 3 0 6 0;
#X connect 4 0 5 0;
#X connect 5 0 9 0;
#X connect 5 0 14 0;
#X connect 6 0 7 0;
#X connect 7 0 11 0;
#X connect 8 0 10 1;
#X connect 8 0 10 0;
#X connect 11 0 8 0;
#X connect 12 0 11 2;
#X connect 13 0 9 0;
#X connect 14 0 20 0;
#X connect 14 0 20 1;
#X connect 15 0 16 0;
#X connect 15 0 17 0;
#X connect 16 0 19 0;
#X connect 16 0 19 1;
#X connect 17 0 18 0;
